<?xml version="1.0" encoding="utf-8"?>
<!-- Generator: Adobe Illustrator 19.2.1, SVG Export Plug-In . SVG Version: 6.00 Build 0)  -->
<svg version="1.1" xmlns="http://www.w3.org/2000/svg" xmlns:xlink="http://www.w3.org/1999/xlink" x="0px" y="0px"
	 viewBox="0 0 450 140" style="enable-background:new 0 0 450 140;" xml:space="preserve">
<style type="text/css">
	.st0{display:none;}
	.st1{display:inline;}
	.st2{display:inline;fill:#FF0000;}
	.st3{display:inline;fill:none;stroke:#D53E31;stroke-width:7;stroke-miterlimit:10;}
	.st4{display:inline;fill:none;stroke:#018BB4;stroke-width:7;stroke-miterlimit:10;}
	.st5{display:inline;fill:none;stroke:#FFFFFF;stroke-width:7;stroke-miterlimit:10;}
	.st6{fill:#303344;}
	.st7{fill:#ECA820;}
	.st8{fill:#FDD946;}
	.st9{fill:#CCCBCB;}
	.st10{display:inline;fill:none;}
	.st11{display:inline;fill:#0295BF;}
	.st12{display:inline;fill:#FFFFFF;}
	.st13{fill:#FFFFFF;}
	.st14{display:inline;fill:#17152A;}
	.st15{fill:#0295BF;}
</style>
<g id="background" class="st0">
	<rect class="st1" width="450" height="140"/>
</g>
<g id="guides" class="st0">
	<rect x="30.8" y="35" class="st2" width="40" height="70"/>
	<rect x="100" y="35" class="st2" width="40" height="70"/>
	<rect x="116.8" y="65" class="st2" width="300" height="10"/>
</g>
<g id="Layer_1" class="st0">
	<g id="Layer_7_1_">
		<g class="st1">
			<path d="M51.8,31.8h29.8c-8.4-5.9-18.7-9.4-29.8-9.4c-28.6,0-51.9,23.3-51.9,51.9c0,25.6,18.6,46.8,42.9,51.1l-21.1-21.1l0,0
				C14,96.6,9.3,86,9.3,74.3C9.3,50.8,28.4,31.8,51.8,31.8z"/>
			<path d="M51.8,53.8c-11.3,0-20.4,9.2-20.4,20.4s9.2,20.4,20.4,20.4s20.4-9.2,20.4-20.4S63.1,53.8,51.8,53.8z M51.8,85.2
				c-6.1,0-11-4.9-11-11s4.9-11,11-11s11,4.9,11,11S57.9,85.2,51.8,85.2z"/>
			<path d="M81.6,53.8H69c5.8,4.9,9.5,12.2,9.5,20.4c0,14.7-12,26.7-26.7,26.7c-0.8,0-1.5,0-2.3-0.1l8.9,8.9
				C75.2,106.6,88,91.9,88,74.2C88,66.6,85.6,59.6,81.6,53.8z"/>
			<path d="M99.5,53.8H89c3.3,6.1,5.3,13,5.3,20.4c0,19.3-12.9,35.6-30.6,40.7l7.4,7.4c19.1-7.7,32.6-26.3,32.6-48.1
				C103.7,66.9,102.2,60,99.5,53.8z"/>
			<path d="M42.1,115.5L26.3,99.8l0,0l0,0c-6.5-6.5-10.6-15.6-10.6-25.5c0-19.9,16.2-36.1,36.1-36.1H74h-1h15.8
				c2.8,2.8,5.2,6,7.3,9.4H83.8H84h-8.6h0.8H51.9c-14.7,0-26.7,12-26.7,26.7c0,7.4,3,14,7.8,18.9l0,0l0,0l23.3,23.3l2.1,2.1l6,6
				c-3.8,0.9-7.7,1.5-11.8,1.5L42.1,115.5z"/>
		</g>
	</g>
	<g id="Layer_8" class="st1">
	</g>
	<g id="Layer_10" class="st1">
	</g>
	<g id="Layer_11" class="st1">
	</g>
	<g id="Layer_12" class="st1">
	</g>
	<g id="Layer_13">
		<circle class="st3" cx="53" cy="70" r="16"/>
		<line class="st4" x1="53" y1="37.9" x2="88.2" y2="37.9"/>
		<line class="st3" x1="53" y1="53.9" x2="97.8" y2="53.9"/>
		<line class="st3" x1="43.4" y1="82.7" x2="73.8" y2="113.1"/>
		<line class="st4" x1="33.8" y1="95.5" x2="56.2" y2="117.9"/>
		<circle class="st5" cx="53" cy="70" r="48"/>
		<circle class="st4" cx="53" cy="70" r="32"/>
	</g>
	<g class="st1">
		<g>
			<path class="st6" d="M138.4,60.7c0,5-1,8.7-2.9,11c-1.9,2.3-5,3.5-9.4,3.5h-4.5v18.7h-7.5V46.1h12c4.3,0,7.5,1.2,9.4,3.5
				C137.4,52,138.4,55.7,138.4,60.7z M130.9,60.7c0-2.4-0.3-4.3-1-5.7s-2-2.1-4-2.1h-4.2v15.5h4.2c2,0,3.4-0.7,4-2
				C130.5,65,130.9,63.1,130.9,60.7z"/>
			<path class="st6" d="M168.5,81.2c-0.1,2.1-0.5,4.1-1.1,5.9c-0.7,1.8-1.6,3.2-2.8,4.3c-1.1,1-2.3,1.8-3.6,2.3s-2.9,0.7-4.7,0.7
				c-2.2,0-4.1-0.4-5.6-1.2c-1.5-0.8-2.7-1.8-3.7-2.9c-0.8-0.9-1.4-2-1.9-3.1c-0.4-1.2-0.8-2.5-1-4.2c-0.2-1.6-0.4-3.5-0.5-5.6
				s-0.1-4.6-0.1-7.4s0-5.3,0.1-7.4s0.2-4,0.5-5.6c0.2-1.6,0.6-3,1-4.2s1.1-2.2,1.9-3.1c1-1.2,2.2-2.1,3.7-2.9
				c1.5-0.8,3.3-1.2,5.6-1.2c1.8,0,3.4,0.3,4.8,0.8c1.3,0.5,2.5,1.3,3.6,2.3c1.2,1.1,2.1,2.5,2.7,4.3c0.6,1.7,1,3.7,1.1,5.8H161
				c0-0.9-0.1-1.7-0.3-2.5s-0.4-1.5-0.8-2.1c-0.4-0.5-0.8-1-1.4-1.3c-0.6-0.3-1.3-0.5-2.2-0.5s-1.6,0.2-2.2,0.5
				c-0.6,0.3-1,0.8-1.4,1.3c-0.8,1.2-1.2,3-1.4,5.5S151,65.6,151,70s0.1,7.8,0.3,10.3s0.6,4.3,1.4,5.5c0.4,0.5,0.8,1,1.4,1.3
				c0.6,0.3,1.3,0.5,2.2,0.5s1.6-0.2,2.2-0.5c0.6-0.3,1-0.7,1.4-1.3c0.4-0.6,0.7-1.3,0.8-2.1c0.2-0.8,0.3-1.7,0.3-2.5L168.5,81.2
				L168.5,81.2z"/>
			<path class="st7" d="M199.1,60.7c0,5-1,8.7-2.9,11c-1.9,2.3-5,3.5-9.4,3.5h-4.5v18.7h-7.5V46.1h12c4.3,0,7.5,1.2,9.4,3.5
				C198.1,52,199.1,55.7,199.1,60.7z M191.6,60.7c0-2.4-0.3-4.3-1-5.7s-2-2.1-4-2.1h-4.2v15.5h4.2c2,0,3.4-0.7,4-2
				C191.3,65,191.6,63.1,191.6,60.7z"/>
			<path class="st7" d="M221.3,93.9l-1.9-9.4h-11.1l-1.9,9.4h-7.9l11.7-47.7h7.3l11.6,47.7H221.3z M213.9,57.7l-4.1,20h8.2
				L213.9,57.7z"/>
			<path class="st7" d="M251.6,93.9l-6.2-19.6h-4.2v19.6h-7.5V46.1h12.1c4.4,0,7.5,1.1,9.4,3.3s2.8,5.8,2.8,10.8
				c0,2.9-0.4,5.5-1.1,7.6c-0.8,2.1-2.2,3.7-4.4,4.9l7.1,21.2C259.6,93.9,251.6,93.9,251.6,93.9z M250.4,60.2c0-1-0.1-1.9-0.2-2.8
				c-0.1-0.9-0.3-1.7-0.6-2.3c-0.3-0.7-0.8-1.2-1.4-1.6c-0.6-0.4-1.4-0.6-2.4-0.6h-4.6v14.6h4.6c1,0,1.8-0.2,2.4-0.6
				c0.6-0.4,1.1-0.9,1.4-1.6c0.3-0.7,0.5-1.5,0.6-2.3C250.3,62.1,250.4,61.2,250.4,60.2z"/>
			<path class="st7" d="M276.5,52.9v40.9H269V52.9h-8v-6.8h23.5v6.8H276.5z"/>
			<path class="st6" d="M314.2,60.7c0,5-1,8.7-2.9,11c-1.9,2.3-5,3.5-9.4,3.5h-4.5v18.7H290V46.1h12c4.3,0,7.5,1.2,9.4,3.5
				C313.3,52,314.2,55.7,314.2,60.7z M306.7,60.7c0-2.4-0.3-4.3-1-5.7s-2-2.1-4-2.1h-4.2v15.5h4.2c2,0,3.4-0.7,4-2
				C306.4,65,306.7,63.1,306.7,60.7z"/>
			<path class="st6" d="M320.7,93.9V46.1h7.5v47.7L320.7,93.9L320.7,93.9z"/>
			<path class="st6" d="M359.9,81.2c-0.1,2.1-0.5,4.1-1.1,5.9c-0.7,1.8-1.6,3.2-2.8,4.3c-1.1,1-2.3,1.8-3.6,2.3
				c-1.3,0.5-2.9,0.7-4.7,0.7c-2.2,0-4.1-0.4-5.6-1.2s-2.7-1.8-3.7-2.9c-0.8-0.9-1.4-2-1.9-3.1c-0.4-1.2-0.8-2.5-1-4.2
				c-0.2-1.6-0.4-3.5-0.5-5.6s-0.1-4.6-0.1-7.4s0-5.3,0.1-7.4s0.2-4,0.5-5.6c0.2-1.6,0.6-3,1-4.2s1.1-2.2,1.9-3.1
				c1-1.2,2.2-2.1,3.7-2.9c1.5-0.8,3.3-1.2,5.6-1.2c1.8,0,3.4,0.3,4.8,0.8c1.3,0.5,2.5,1.3,3.6,2.3c1.2,1.1,2.1,2.5,2.7,4.3
				c0.6,1.7,1,3.7,1.1,5.8h-7.5c0-0.9-0.1-1.7-0.3-2.5c-0.2-0.8-0.4-1.5-0.8-2.1c-0.4-0.5-0.8-1-1.4-1.3s-1.3-0.5-2.2-0.5
				c-0.9,0-1.6,0.2-2.2,0.5s-1,0.8-1.4,1.3c-0.8,1.2-1.2,3-1.4,5.5c-0.2,2.5-0.3,5.9-0.3,10.3s0.1,7.8,0.3,10.3
				c0.2,2.5,0.6,4.3,1.4,5.5c0.4,0.5,0.8,1,1.4,1.3s1.3,0.5,2.2,0.5c0.9,0,1.6-0.2,2.2-0.5s1-0.7,1.4-1.3c0.4-0.6,0.7-1.3,0.8-2.1
				c0.2-0.8,0.3-1.7,0.3-2.5L359.9,81.2L359.9,81.2z"/>
			<path class="st6" d="M385.1,93.9l-7.7-19.6l-3.6,7.4V94h-7.5V46.1h7.5v22.5l10.4-22.5h7.6l-9.6,19.8l11.1,27.9h-8.2V93.9z"/>
			<path class="st6" d="M397.7,93.9V46.1h20v6.8h-12.5v13.5H416v6.8h-10.8v13.9h12.5v6.8H397.7z"/>
			<path class="st6" d="M442.2,93.9L436,74.3h-4.2v19.6h-7.5V46.1h12.1c4.4,0,7.5,1.1,9.4,3.3s2.8,5.8,2.8,10.8
				c0,2.9-0.4,5.5-1.1,7.6c-0.8,2.1-2.2,3.7-4.4,4.9l7.1,21.2C450.2,93.9,442.2,93.9,442.2,93.9z M441,60.2c0-1-0.1-1.9-0.2-2.8
				c-0.1-0.9-0.3-1.7-0.6-2.3c-0.3-0.7-0.8-1.2-1.4-1.6c-0.6-0.4-1.4-0.6-2.4-0.6h-4.6v14.6h4.6c1,0,1.8-0.2,2.4-0.6
				s1.1-0.9,1.4-1.6s0.5-1.5,0.6-2.3C440.9,62.1,441,61.2,441,60.2z"/>
		</g>
		<g>
			<polygon class="st6" points="82.5,46.2 82.5,93.8 55,109.7 41.2,101.7 41.2,117.6 0,93.8 0,46.2 13.8,54.1 13.8,38.3 41.2,22.4 
							"/>
			<g>
				<polygon class="st8" points="36.7,51.5 22.9,59.4 41.2,70 55,62.1 				"/>
			</g>
			<g>
				<polygon class="st7" points="55,83.2 41.2,91.2 41.2,70 55,62.1 				"/>
			</g>
			<polygon class="st9" points="41.2,27.7 22.9,38.3 57.3,58.1 75.6,47.5 			"/>
			<polygon class="st9" points="59.6,62.1 77.9,51.5 77.9,91.2 59.6,101.7 			"/>
			<polygon class="st9" points="4.6,54.1 36.7,72.6 36.7,109.7 4.6,91.2 			"/>
		</g>
	</g>
</g>
<g id="logo" class="st0">
	<polygon class="st10" points="49.6,105 32.3,87.7 54.4,109.8 	"/>
	<ellipse transform="matrix(0.7071 -0.7071 0.7071 0.7071 -34.853 55.8595)" class="st10" cx="50" cy="70" rx="10" ry="10"/>
	<path class="st11" d="M78.3,98.3c-5.2,5.2-11.4,8.6-17.9,10.4l7.9,7.9c6.2-2.4,12.1-6.2,17.1-11.2c15-15,18.4-37.1,10.5-55.4H84.7
		C93.5,65.3,91.4,85.2,78.3,98.3z"/>
	<path class="st11" d="M14.6,34.6c-19.5,19.5-19.5,51.2,0,70.7c8,8,17.9,12.7,28.3,14.1L21.7,98.3c-15.6-15.6-15.6-41,0-56.6
		C29.5,33.9,39.8,30,50,30h30C60.4,15.3,32.5,16.8,14.6,34.6z"/>
	<path class="st11" d="M35.9,84.1c7.8,7.8,20.5,7.8,28.3,0c7.8-7.8,7.8-20.5,0-28.3C60.2,52,55.1,50,50,50c-5.1,0-10.2,2-14.1,5.9
		C28.1,63.7,28.1,76.3,35.9,84.1z M42.9,62.9c3.9-3.9,10.2-3.9,14.1,0c3.9,3.9,3.9,10.2,0,14.1c-3.9,3.9-10.2,3.9-14.1,0
		C39,73.2,39,66.8,42.9,62.9z"/>
	<path class="st11" d="M67.7,52.3c9.8,9.8,9.8,25.6,0,35.4c-5.8,5.8-13.7,8.1-21.2,7.1l9.7,9.7c6.8-1.2,13.3-4.4,18.6-9.7
		c12.2-12.2,13.5-31.1,4-44.8H65C65.9,50.7,66.8,51.5,67.7,52.3z"/>
	<path class="st12" d="M32.3,52.3C37.2,47.4,43.6,45,50,45h43.3c-2.1-3.6-4.6-6.9-7.6-10H50c-9,0-17.9,3.4-24.8,10.3
		c-13.7,13.7-13.7,35.8,0,49.5L50.5,120c4.2,0,8.4-0.6,12.4-1.7L32.3,87.7C22.6,77.9,22.6,62.1,32.3,52.3z"/>
</g>
<g id="type" class="st0">
	<g class="st1">
		<path class="st13" d="M168.4,39.7L164,45c-2-2.4-4.9-3.9-7.6-3.9c-4.8,0-8.4,3.8-8.4,8.7c0,5,3.6,8.9,8.4,8.9
			c2.5,0,5.5-1.4,7.6-3.5l4.5,4.7c-3.2,3.3-8,5.5-12.4,5.5c-9.1,0-15.8-6.7-15.8-15.5c0-8.7,6.9-15.2,16.1-15.2
			C160.8,34.6,165.4,36.6,168.4,39.7z"/>
		<path class="st13" d="M192.7,65H185v-9.5l-11.1-20.6h7.7l7.3,13.1l7.1-13.1h7.7l-10.9,20.4V65z"/>
		<path class="st13" d="M237.2,39.7l-4.4,5.2c-2-2.4-4.9-3.9-7.6-3.9c-4.8,0-8.4,3.8-8.4,8.7c0,5,3.6,8.9,8.4,8.9
			c2.5,0,5.5-1.4,7.6-3.5l4.5,4.7c-3.2,3.3-8,5.5-12.4,5.5c-9.1,0-15.8-6.7-15.8-15.5c0-8.7,6.9-15.2,16.1-15.2
			C229.6,34.6,234.2,36.6,237.2,39.7z"/>
		<path class="st13" d="M266.4,58.6V65h-20.4V34.9h7.7v23.7H266.4z"/>
		<path class="st13" d="M275.2,65V34.9h7.7V65H275.2z"/>
		<path class="st13" d="M315.1,65l-13.8-18.5V65h-7.2V34.9h6.8l13.9,18.6V34.9h7.1V65H315.1z"/>
		<path class="st13" d="M359.7,49.7v11.7c-3.2,2.3-8.3,3.9-12.5,3.9c-9.2,0-16.1-6.6-16.1-15.4c0-8.7,7.1-15.3,16.6-15.3
			c4.5,0,9.2,1.7,12.3,4.5l-4.3,5.2c-2.2-2-5.2-3.3-8-3.3c-4.9,0-8.7,3.9-8.7,8.9c0,5.1,3.8,9,8.8,9c1.5,0,3.5-0.6,5.3-1.5v-7.8
			H359.7z"/>
	</g>
	<g class="st1">
		<path class="st13" d="M154.2,75.1c6.8,0,11.1,2.9,11.1,7.5c0,3.2-2,5.7-5.2,6.6c3.8,0.7,6.2,3.7,6.2,7.6c0,5.1-4.5,8.3-11.6,8.3
			H140V75.1H154.2z M147.6,87.1h6.2c2.2,0,3.7-1.2,3.7-3.1c0-1.9-1.4-3.1-3.7-3.1h-6.2V87.1z M147.6,99.3h6.2c2.8,0,4.6-1.2,4.6-3.4
			c0-2-1.8-3.3-4.6-3.3h-6.2V99.3z"/>
		<path class="st13" d="M202.8,92.5c0,8-5.3,13-13.7,13c-8.5,0-13.9-5-13.9-13V75.1h7.7v17.5c0,4.1,2.6,6.6,6.3,6.6
			c3.6,0,6.1-2.5,6.1-6.6V75.1h7.6V92.5z"/>
		<path class="st13" d="M213.3,105.2V75.1h7.7v30.1H213.3z"/>
		<path class="st13" d="M252.4,98.8v6.4H232V75.1h7.7v23.7H252.4z"/>
		<path class="st13" d="M274,75.1c9.5,0,16,6.1,16,15c0,8.9-6.6,15-16.3,15h-12.6V75.1H274z M268.7,99.1h5.5c4.7,0,8-3.6,8-8.9
			c0-5.3-3.5-9-8.4-9h-5.1V99.1z"/>
		<path class="st13" d="M306.7,81.1v6H321v6h-14.4v6.1h16.4v6h-24V75.1h23.6v6H306.7z"/>
		<path class="st13" d="M346.7,96.7h-0.2h-5.8v8.5H333V75.1h13.5c8,0,12.5,3.8,12.5,10.5c0,4.6-1.9,7.9-5.5,9.7l6.3,9.9h-8.7
			L346.7,96.7z M346.5,90.7c3.3,0,5.2-1.7,5.2-4.9c0-3.1-1.9-4.7-5.2-4.7h-5.8v9.6H346.5z"/>
	</g>
	<polygon class="st14" points="49.6,105 32.3,87.7 54.4,109.8 	"/>
	<path class="st14" d="M85.7,35c3,3.1,5.6,6.4,7.6,10"/>
</g>
<g id="Layer_6">
	<g>
		<path class="st13" d="M168.2,40.2l-4.4,5.2c-2-2.4-4.9-3.9-7.6-3.9c-4.8,0-8.4,3.8-8.4,8.7c0,5,3.6,8.9,8.4,8.9
			c2.5,0,5.5-1.4,7.6-3.5l4.5,4.7c-3.2,3.3-8,5.5-12.4,5.5c-9.1,0-15.8-6.7-15.8-15.5c0-8.7,6.9-15.2,16.1-15.2
			C160.6,35.1,165.2,37.1,168.2,40.2z"/>
		<path class="st13" d="M192.4,65.5h-7.6V56l-11.1-20.6h7.7l7.3,13.1l7.1-13.1h7.7l-10.9,20.4V65.5z"/>
		<path class="st13" d="M237.2,40.2l-4.4,5.2c-2-2.4-4.9-3.9-7.6-3.9c-4.8,0-8.4,3.8-8.4,8.7c0,5,3.6,8.9,8.4,8.9
			c2.5,0,5.5-1.4,7.6-3.5l4.5,4.7c-3.2,3.3-8,5.5-12.4,5.5c-9.1,0-15.8-6.7-15.8-15.5c0-8.7,6.9-15.2,16.1-15.2
			C229.6,35.1,234.2,37.1,237.2,40.2z"/>
		<path class="st13" d="M266.6,59.1v6.4h-20.4V35.4h7.7v23.7H266.6z"/>
		<path class="st13" d="M275.7,65.5V35.4h7.7v30.1H275.7z"/>
		<path class="st13" d="M315.8,65.5L301.9,47v18.5h-7.2V35.4h6.8L315.4,54V35.4h7.1v30.1H315.8z"/>
		<path class="st13" d="M360.6,50.2v11.7c-3.2,2.3-8.3,3.9-12.5,3.9c-9.2,0-16.1-6.6-16.1-15.4c0-8.7,7.1-15.3,16.6-15.3
			c4.5,0,9.2,1.7,12.3,4.5l-4.3,5.2c-2.2-2-5.2-3.3-8-3.3c-4.9,0-8.7,3.9-8.7,8.9c0,5.1,3.8,9,8.8,9c1.5,0,3.5-0.6,5.3-1.5v-7.8
			H360.6z"/>
	</g>
	<g>
		<path class="st13" d="M154.2,74.9c6.8,0,11.1,2.9,11.1,7.5c0,3.2-2,5.7-5.2,6.6c3.8,0.7,6.2,3.7,6.2,7.6c0,5.1-4.5,8.3-11.6,8.3
			H140V74.9H154.2z M147.6,86.9h6.2c2.2,0,3.7-1.2,3.7-3.1c0-1.9-1.4-3.1-3.7-3.1h-6.2V86.9z M147.6,99.1h6.2c2.8,0,4.6-1.2,4.6-3.4
			c0-2-1.8-3.3-4.6-3.3h-6.2V99.1z"/>
		<path class="st13" d="M203,92.4c0,8-5.3,13-13.7,13c-8.5,0-13.9-5-13.9-13V74.9h7.7v17.5c0,4.1,2.6,6.6,6.3,6.6
			c3.6,0,6.1-2.5,6.1-6.6V74.9h7.6V92.4z"/>
		<path class="st13" d="M213.7,105V74.9h7.7V105H213.7z"/>
		<path class="st13" d="M252.9,98.6v6.4h-20.4V74.9h7.7v23.7H252.9z"/>
		<path class="st13" d="M274.7,74.9c9.5,0,16,6.1,16,15c0,8.9-6.6,15-16.3,15h-12.6V74.9H274.7z M269.4,98.9h5.5c4.7,0,8-3.6,8-8.9
			c0-5.3-3.5-9-8.4-9h-5.1V98.9z"/>
		<path class="st13" d="M307.5,80.9v6h14.4v6h-14.4V99h16.4v6h-24V74.9h23.6v6H307.5z"/>
		<path class="st13" d="M347.7,96.5h-0.2h-5.8v8.5H334V74.9h13.5c8,0,12.5,3.8,12.5,10.5c0,4.6-1.9,7.9-5.5,9.7l6.3,9.9h-8.7
			L347.7,96.5z M347.5,90.5c3.3,0,5.2-1.7,5.2-4.9c0-3.1-1.9-4.7-5.2-4.7h-5.8v9.6H347.5z"/>
	</g>
	<path class="st15" d="M78.3,98.3c-5.2,5.2-11.4,8.6-17.9,10.3l7.9,7.9c6.2-2.4,12.1-6.2,17.1-11.2c15-15,18.4-37.1,10.5-55.4H84.6
		C93.5,65.3,91.4,85.2,78.3,98.3z"/>
	<path class="st15" d="M14.6,34.6c-19.5,19.5-19.5,51.2,0,70.7c8,8,17.9,12.7,28.3,14.1L21.7,98.3c-15.6-15.6-15.6-40.9,0-56.6
		C29.5,33.9,39.8,30,50,30h30C60.4,15.3,32.5,16.8,14.6,34.6z"/>
	<path class="st15" d="M35.9,84.1c7.8,7.8,20.5,7.8,28.3,0c7.8-7.8,7.8-20.5,0-28.3C60.2,52,55.1,50,50,50c-5.1,0-10.2,2-14.1,5.9
		C28,63.7,28,76.3,35.9,84.1z M42.9,62.9c3.9-3.9,10.2-3.9,14.1,0c3.9,3.9,3.9,10.2,0,14.1c-3.9,3.9-10.2,3.9-14.1,0
		C39,73.2,39,66.8,42.9,62.9z"/>
	<path class="st15" d="M67.7,52.3c9.8,9.8,9.8,25.6,0,35.4c-5.8,5.8-13.7,8.1-21.2,7.1l9.7,9.7c6.8-1.2,13.3-4.4,18.6-9.7
		c12.2-12.2,13.5-31.1,4-44.7H65C65.9,50.7,66.8,51.5,67.7,52.3z"/>
	<path class="st13" d="M32.3,87.7c-9.8-9.8-9.8-25.6,0-35.4C37.2,47.4,43.6,45,50,45h43.3c-2.1-3.6-4.6-6.9-7.6-10H50
		c-9,0-17.9,3.4-24.7,10.3c-13.7,13.7-13.7,35.8,0,49.5L50.5,120c4.2,0,8.4-0.6,12.4-1.7L32.3,87.7z"/>
</g>
</svg>
