<?xml version="1.0" encoding="utf-8"?>
<!-- Generator: Adobe Illustrator 21.1.0, SVG Export Plug-In . SVG Version: 6.00 Build 0)  -->
<svg version="1.1" id="Layer_1" xmlns="http://www.w3.org/2000/svg" xmlns:xlink="http://www.w3.org/1999/xlink" x="0px" y="0px"
	 width="648px" height="160.5px" viewBox="0 0 648 160.5" style="enable-background:new 0 0 648 160.5;" xml:space="preserve">
<style type="text/css">
	.st0{fill:#DDDCDB;}
	.st1{fill:#EDA920;}
	.st2{fill:#FEDA47;}
	.st3{fill:#CDCCCC;}
</style>
<path class="st0" d="M206.2,67.6c0,6.8-1.3,11.8-3.9,14.9c-2.6,3.2-6.9,4.7-12.8,4.7h-6.1v25.4h-10.2V47.8h16.3
	c5.9,0,10.1,1.6,12.8,4.8C204.9,55.8,206.2,60.8,206.2,67.6z M196,67.6c0-3.3-0.5-5.9-1.4-7.7c-0.9-1.9-2.7-2.8-5.5-2.8h-5.7V78h5.7
	c2.7,0,4.6-0.9,5.5-2.8C195.5,73.4,196,70.8,196,67.6z"/>
<path class="st0" d="M247.2,95.4c-0.1,2.9-0.6,5.6-1.5,8c-0.9,2.4-2.2,4.4-3.8,5.9c-1.5,1.4-3.1,2.4-4.8,3.1c-1.8,0.7-3.9,1-6.4,1
	c-3,0-5.6-0.5-7.6-1.6s-3.7-2.4-5-4c-1.1-1.3-1.9-2.7-2.6-4.3c-0.6-1.6-1.1-3.5-1.4-5.7c-0.3-2.2-0.5-4.7-0.6-7.6
	c-0.1-2.9-0.1-6.2-0.1-10.1s0-7.2,0.1-10.1c0.1-2.9,0.3-5.4,0.6-7.6c0.3-2.2,0.8-4.1,1.4-5.7c0.6-1.6,1.5-3,2.6-4.3
	c1.3-1.6,3-2.9,5-4c2-1.1,4.5-1.6,7.6-1.6c2.5,0,4.6,0.4,6.5,1c1.8,0.7,3.5,1.7,4.9,3.1c1.6,1.5,2.9,3.4,3.7,5.8
	c0.8,2.3,1.3,5,1.5,7.9H237c-0.1-1.2-0.2-2.4-0.4-3.5c-0.2-1.1-0.6-2-1.1-2.8c-0.5-0.7-1.1-1.3-1.9-1.7c-0.8-0.4-1.7-0.6-3-0.6
	c-1.2,0-2.2,0.2-3,0.7c-0.8,0.5-1.4,1-1.9,1.8c-1,1.6-1.7,4.1-1.9,7.5c-0.2,3.4-0.4,8.1-0.4,14c0,6,0.1,10.6,0.4,14
	c0.2,3.4,0.9,5.9,1.9,7.5c0.5,0.7,1.1,1.3,1.9,1.8c0.8,0.5,1.7,0.7,3,0.7c1.2,0,2.2-0.2,3-0.6c0.8-0.4,1.4-1,1.9-1.7
	c0.5-0.9,0.9-1.8,1.1-2.9c0.2-1.1,0.3-2.2,0.4-3.5H247.2z"/>
<path class="st1" d="M288.8,67.6c0,6.8-1.3,11.8-3.9,14.9c-2.6,3.2-6.9,4.7-12.8,4.7H266v25.4h-10.2V47.8h16.3
	c5.9,0,10.1,1.6,12.8,4.8C287.5,55.8,288.8,60.8,288.8,67.6z M278.6,67.6c0-3.3-0.5-5.9-1.4-7.7c-0.9-1.9-2.7-2.8-5.5-2.8H266V78
	h5.7c2.7,0,4.6-0.9,5.5-2.8C278.1,73.4,278.6,70.8,278.6,67.6z"/>
<path class="st1" d="M319,112.7l-2.6-12.9h-15l-2.6,12.9H288l16-64.9h9.9l15.8,64.9H319z M308.9,63.5l-5.6,27.2h11.1L308.9,63.5z"/>
<path class="st1" d="M360.1,112.7l-8.5-26.6h-5.7v26.6h-10.2V47.8h16.4c6,0,10.2,1.5,12.8,4.5s3.8,7.9,3.8,14.6
	c0,4-0.5,7.4-1.5,10.3c-1,2.9-3,5.1-6,6.7l9.7,28.8H360.1z M358.5,66.9c0-1.3-0.1-2.6-0.2-3.8c-0.2-1.2-0.4-2.3-0.9-3.2
	c-0.4-0.9-1.1-1.6-1.9-2.1c-0.9-0.5-1.9-0.8-3.3-0.8h-6.3v19.9h6.3c1.3,0,2.4-0.3,3.3-0.8c0.8-0.5,1.5-1.2,1.9-2.1
	c0.4-0.9,0.7-2,0.9-3.2C358.4,69.5,358.5,68.3,358.5,66.9z"/>
<path class="st1" d="M394,57v55.7h-10.2V57H373v-9.2h32V57H394z"/>
<path class="st0" d="M445.4,67.6c0,6.8-1.3,11.8-3.9,14.9c-2.6,3.2-6.9,4.7-12.8,4.7h-6.1v25.4h-10.2V47.8h16.3
	c5.9,0,10.1,1.6,12.8,4.8C444,55.8,445.4,60.8,445.4,67.6z M435.1,67.6c0-3.3-0.5-5.9-1.4-7.7c-0.9-1.9-2.7-2.8-5.5-2.8h-5.7V78h5.7
	c2.7,0,4.6-0.9,5.5-2.8C434.7,73.4,435.1,70.8,435.1,67.6z"/>
<path class="st0" d="M454.2,112.7V47.8h10.2v64.9H454.2z"/>
<path class="st0" d="M507.5,95.4c-0.1,2.9-0.6,5.6-1.5,8c-0.9,2.4-2.2,4.4-3.8,5.9c-1.5,1.4-3.1,2.4-4.8,3.1c-1.8,0.7-3.9,1-6.4,1
	c-3,0-5.6-0.5-7.6-1.6s-3.7-2.4-5-4c-1.1-1.3-1.9-2.7-2.6-4.3c-0.6-1.6-1.1-3.5-1.4-5.7c-0.3-2.2-0.5-4.7-0.6-7.6
	c-0.1-2.9-0.1-6.2-0.1-10.1s0-7.2,0.1-10.1c0.1-2.9,0.3-5.4,0.6-7.6c0.3-2.2,0.8-4.1,1.4-5.7c0.6-1.6,1.5-3,2.6-4.3
	c1.3-1.6,3-2.9,5-4c2-1.1,4.5-1.6,7.6-1.6c2.5,0,4.6,0.4,6.5,1c1.8,0.7,3.5,1.7,4.9,3.1c1.6,1.5,2.9,3.4,3.7,5.8
	c0.8,2.3,1.3,5,1.5,7.9h-10.2c-0.1-1.2-0.2-2.4-0.4-3.5c-0.2-1.1-0.6-2-1.1-2.8c-0.5-0.7-1.1-1.3-1.9-1.7c-0.8-0.4-1.7-0.6-3-0.6
	c-1.2,0-2.2,0.2-3,0.7c-0.8,0.5-1.4,1-1.9,1.8c-1,1.6-1.7,4.1-1.9,7.5c-0.2,3.4-0.4,8.1-0.4,14c0,6,0.1,10.6,0.4,14
	c0.2,3.4,0.9,5.9,1.9,7.5c0.5,0.7,1.1,1.3,1.9,1.8c0.8,0.5,1.7,0.7,3,0.7c1.2,0,2.2-0.2,3-0.6c0.8-0.4,1.4-1,1.9-1.7
	c0.5-0.9,0.9-1.8,1.1-2.9c0.2-1.1,0.3-2.2,0.4-3.5H507.5z"/>
<path class="st0" d="M541.7,112.7L531.2,86l-4.9,10v16.7h-10.2V47.8h10.2v30.5l14.1-30.5h10.3l-13,26.9l15,38H541.7z"/>
<path class="st0" d="M558.8,112.7V47.8h27.3V57h-17v18.4h14.7v9.2H569v18.9h17v9.2H558.8z"/>
<path class="st0" d="M619.3,112.7l-8.5-26.6h-5.7v26.6h-10.2V47.8h16.4c6,0,10.2,1.5,12.8,4.5s3.8,7.9,3.8,14.6
	c0,4-0.5,7.4-1.5,10.3c-1,2.9-3,5.1-6,6.7l9.7,28.8H619.3z M617.7,66.9c0-1.3-0.1-2.6-0.2-3.8c-0.2-1.2-0.4-2.3-0.9-3.2
	c-0.4-0.9-1.1-1.6-1.9-2.1c-0.9-0.5-1.9-0.8-3.3-0.8h-6.3v19.9h6.3c1.3,0,2.4-0.3,3.3-0.8c0.8-0.5,1.5-1.2,1.9-2.1
	c0.4-0.9,0.7-2,0.9-3.2C617.6,69.5,617.7,68.3,617.7,66.9z"/>
<path class="st0" d="M74.1,10.9L32.7,34.8v17L14,40.9l0,74l64.1,37v-21.6l14.7,8.5l41.4-23.9V45.6L74.1,10.9z M130.2,112.6
	l-37.4,21.6l-18.7-10.8V145L18,112.6l0-64.8l18.7,10.8V37.1l37.4-21.6l56.1,32.4V112.6z"/>
<g>
	<polygon class="st2" points="67.9,55.1 49.2,65.9 74.1,80.2 92.8,69.4 	"/>
</g>
<g>
	<polygon class="st1" points="92.8,98.2 74.1,109 74.1,80.2 92.8,69.4 	"/>
</g>
<polygon class="st3" points="74.1,22.7 49.2,37.1 95.9,64.1 120.8,49.7 "/>
<polygon class="st3" points="99,69.4 123.9,55.1 123.9,109 99,123.4 "/>
<polygon class="st3" points="24.3,58.7 67.9,83.8 67.9,134.2 24.3,109 "/>
</svg>
