<svg id="a839fba5-241a-4b01-9303-a96677dfef96" data-name="Layer 2" xmlns="http://www.w3.org/2000/svg" viewBox="0 0 27.72 32"><title>pl-icon</title><polygon points="13.86 0 4.63 5.33 4.63 21.33 18.48 29.33 27.72 24 27.72 8 13.86 0" fill="#303344"/><polygon points="0 8 13.86 16 13.86 32 0.01 24 0 8" fill="#303344"/><polygon points="12.33 9.78 7.71 12.45 13.86 16 18.48 13.33 12.33 9.78" fill="#fdd946"/><polygon points="18.48 20.44 13.86 23.11 13.86 16 18.48 13.33 18.48 20.44" fill="#eca820"/><polygon points="13.86 1.78 7.71 5.33 19.25 12 25.41 8.44 13.86 1.78" fill="#cccbcb"/><polygon points="20.02 13.33 26.18 9.78 26.18 23.11 20.02 26.67 20.02 13.33" fill="#cccbcb"/><polygon points="1.55 10.67 12.32 16.89 12.32 29.33 1.55 23.11 1.55 10.67" fill="#cccbcb"/></svg>